<svg width="755" height="213" viewBox="0 0 755 213" fill="none" xmlns="http://www.w3.org/2000/svg">
<path d="M260.986 62.8199C262.586 59.4279 264.954 56.8679 268.09 55.1399C271.29 53.4119 275.226 52.5479 279.898 52.5479V59.1719L278.266 59.0759C272.954 59.0759 268.794 60.7079 265.786 63.9719C262.778 67.2359 261.274 71.8119 261.274 77.6999V103.428H254.458V52.9319H260.986V62.8199ZM335.739 80.2919H293.499C293.883 85.5399 295.899 89.7959 299.547 93.0599C303.195 96.2599 307.803 97.8599 313.371 97.8599C316.507 97.8599 319.387 97.3159 322.011 96.2279C324.635 95.0759 326.907 93.4119 328.827 91.2359L332.667 95.6519C330.427 98.3399 327.611 100.388 324.219 101.796C320.891 103.204 317.211 103.908 313.179 103.908C307.995 103.908 303.387 102.82 299.355 100.644C295.387 98.4039 292.283 95.3319 290.043 91.4279C287.803 87.5239 286.683 83.1079 286.683 78.1799C286.683 73.2519 287.739 68.8359 289.851 64.9319C292.027 61.0279 294.971 57.9879 298.683 55.8119C302.459 53.6359 306.683 52.5479 311.355 52.5479C316.027 52.5479 320.219 53.6359 323.931 55.8119C327.643 57.9879 330.555 61.0279 332.667 64.9319C334.779 68.7719 335.835 73.1879 335.835 78.1799L335.739 80.2919ZM311.355 58.4039C306.491 58.4039 302.395 59.9719 299.067 63.1079C295.803 66.1799 293.947 70.2119 293.499 75.2039H329.307C328.859 70.2119 326.971 66.1799 323.643 63.1079C320.379 59.9719 316.283 58.4039 311.355 58.4039ZM375.436 52.5479C381.772 52.5479 386.796 54.4039 390.508 58.1159C394.284 61.7639 396.172 67.1079 396.172 74.1479V103.428H389.356V74.8199C389.356 69.5719 388.044 65.5719 385.42 62.8199C382.796 60.0679 379.052 58.6919 374.188 58.6919C368.748 58.6919 364.428 60.3239 361.228 63.5879C358.092 66.7879 356.524 71.2359 356.524 76.9319V103.428H349.708V52.9319H356.236V62.2439C358.092 59.1719 360.652 56.8039 363.916 55.1399C367.244 53.4119 371.084 52.5479 375.436 52.5479ZM461.617 52.9319V97.2839C461.617 105.86 459.505 112.196 455.281 116.292C451.121 120.452 444.817 122.532 436.369 122.532C431.697 122.532 427.249 121.828 423.025 120.42C418.865 119.076 415.473 117.188 412.849 114.756L416.305 109.572C418.737 111.748 421.681 113.444 425.137 114.66C428.657 115.876 432.337 116.484 436.177 116.484C442.577 116.484 447.281 114.98 450.289 111.972C453.297 109.028 454.801 104.42 454.801 98.1479V91.7159C452.689 94.9159 449.905 97.3479 446.449 99.0119C443.057 100.676 439.281 101.508 435.121 101.508C430.385 101.508 426.065 100.484 422.161 98.4359C418.321 96.3239 415.281 93.4119 413.041 89.6999C410.865 85.9239 409.777 81.6679 409.777 76.9319C409.777 72.1959 410.865 67.9719 413.041 64.2599C415.281 60.5479 418.321 57.6679 422.161 55.6199C426.001 53.5719 430.321 52.5479 435.121 52.5479C439.409 52.5479 443.281 53.4119 446.737 55.1399C450.193 56.8679 452.977 59.3639 455.089 62.6279V52.9319H461.617ZM435.793 95.4599C439.441 95.4599 442.737 94.6919 445.681 93.1559C448.625 91.5559 450.897 89.3479 452.497 86.5319C454.161 83.7159 454.993 80.5159 454.993 76.9319C454.993 73.3479 454.161 70.1799 452.497 67.4279C450.897 64.6119 448.625 62.4359 445.681 60.8999C442.801 59.2999 439.505 58.4999 435.793 58.4999C432.145 58.4999 428.849 59.2679 425.905 60.8039C423.025 62.3399 420.753 64.5159 419.089 67.3319C417.489 70.1479 416.689 73.3479 416.689 76.9319C416.689 80.5159 417.489 83.7159 419.089 86.5319C420.753 89.3479 423.025 91.5559 425.905 93.1559C428.849 94.6919 432.145 95.4599 435.793 95.4599ZM498.341 52.5479C504.933 52.5479 509.989 54.2119 513.509 57.5399C517.029 60.8039 518.789 65.6679 518.789 72.1319V103.428H512.261V95.5559C510.725 98.1799 508.453 100.228 505.445 101.7C502.501 103.172 498.981 103.908 494.885 103.908C489.253 103.908 484.773 102.564 481.445 99.8759C478.117 97.1879 476.453 93.6359 476.453 89.2199C476.453 84.9319 477.989 81.4759 481.061 78.8519C484.197 76.2279 489.157 74.9159 495.941 74.9159H511.973V71.8439C511.973 67.4919 510.757 64.1959 508.325 61.9559C505.893 59.6519 502.341 58.4999 497.669 58.4999C494.469 58.4999 491.397 59.0439 488.453 60.1319C485.509 61.1559 482.981 62.5959 480.869 64.4519L477.797 59.3639C480.357 57.1879 483.429 55.5239 487.013 54.3719C490.597 53.1559 494.373 52.5479 498.341 52.5479ZM495.941 98.5319C499.781 98.5319 503.077 97.6679 505.829 95.9399C508.581 94.1479 510.629 91.5879 511.973 88.2599V80.0039H496.133C487.493 80.0039 483.173 83.0119 483.173 89.0279C483.173 91.9719 484.293 94.3079 486.533 96.0359C488.773 97.6999 491.909 98.5319 495.941 98.5319Z" fill="black"/>
<path d="M92.8878 5.32446L95.3838 0.992023C93.8388 0.101943 91.9368 0.101943 90.3918 0.992023L92.8878 5.32446ZM179.974 55.4962H184.974C184.974 53.7082 184.019 52.0563 182.47 51.1638L179.974 55.4962ZM179.974 156.736L182.488 161.058C184.027 160.163 184.974 158.516 184.974 156.736H179.974ZM5.80164 55.4962L3.30565 51.1638C1.75638 52.0563 0.801636 53.7082 0.801636 55.4962H5.80164ZM5.80164 156.736H0.801636C0.801636 158.516 1.74863 160.163 3.28789 161.058L5.80164 156.736ZM90.1407 211.571C92.5277 212.959 95.5883 212.15 96.9766 209.763C98.3649 207.376 97.5552 204.315 95.1682 202.927L90.1407 211.571ZM90.3918 9.6569L177.478 59.8287L182.47 51.1638L95.3838 0.992023L90.3918 9.6569ZM174.974 55.4962V156.736H184.974V55.4962H174.974ZM177.46 152.414L90.6074 202.927L95.6349 211.571L182.488 161.058L177.46 152.414ZM90.3918 0.992023L3.30565 51.1638L8.29763 59.8287L95.3838 9.6569L90.3918 0.992023ZM0.801636 55.4962V156.736H10.8016V55.4962H0.801636ZM3.28789 161.058L90.1407 211.571L95.1682 202.927L8.31538 152.414L3.28789 161.058Z" fill="black"/>
<mask id="mask0" mask-type="alpha" maskUnits="userSpaceOnUse" x="5" y="5" width="176" height="204">
<path d="M7.57976 55.8184L93.0959 6.38388L180.317 57.239L177.76 158.097L90.5389 207.531L5.87512 154.403L7.57976 55.8184Z" fill="white" stroke="black"/>
</mask>
<g mask="url(#mask0)">
<path d="M62.3333 203.148H2.15442V175.644H62.3333V203.148Z" stroke="black" stroke-width="3"/>
<path d="M182.691 203.148H122.512V175.644H182.691V203.148Z" stroke="black" stroke-width="3"/>
<path d="M122.512 203.148H62.3333V175.644H122.512V203.148Z" stroke="black" stroke-width="3"/>
<path d="M92.4228 175.644H32.2439V148.14H92.4228V175.644Z" stroke="black" stroke-width="3"/>
<path d="M32.2439 175.644H7.44678V148.14H32.2439V175.644Z" stroke="black" stroke-width="3"/>
<path d="M181.191 175.644H152.602V148.14H181.191V175.644Z" stroke="black" stroke-width="3"/>
<path d="M152.602 175.644H92.4227V148.14H152.602V175.644Z" stroke="black" stroke-width="3"/>
<path d="M62.3333 148.14H2.15442V120.636H62.3333V148.14Z" stroke="black" stroke-width="3"/>
<path d="M182.691 148.14H122.512V120.636H182.691V148.14Z" stroke="black" stroke-width="3"/>
<path d="M122.512 148.14H62.3333V120.636H122.512V148.14Z" stroke="black" stroke-width="3"/>
<path d="M92.4228 120.636H32.2439V93.132H92.4228V120.636Z" stroke="black" stroke-width="3"/>
<path d="M32.2439 120.636H7.44678V93.132H32.2439V120.636Z" stroke="black" stroke-width="3"/>
<path d="M181.191 120.636H152.602V93.132H181.191V120.636Z" stroke="black" stroke-width="3"/>
<path d="M152.602 120.636H92.4227V93.132H152.602V120.636Z" stroke="black" stroke-width="3"/>
<path d="M62.3333 93.132H2.15442V65.6279H62.3333V93.132Z" stroke="black" stroke-width="3"/>
<path d="M182.691 93.132H122.512V65.6279H182.691V93.132Z" stroke="black" stroke-width="3"/>
<path d="M122.512 93.132H62.3333V65.6279H122.512V93.132Z" stroke="black" stroke-width="3"/>
<path d="M92.4228 65.6279H32.2439V38.1237H92.4228V65.6279Z" stroke="black" stroke-width="3"/>
<path d="M32.2439 65.6279H7.44678V38.1237H32.2439V65.6279Z" stroke="black" stroke-width="3"/>
<path d="M182.691 65.6279H152.602V38.1237H182.691V65.6279Z" stroke="black" stroke-width="3"/>
<path d="M152.602 65.6279H92.4227V38.1237H152.602V65.6279Z" stroke="black" stroke-width="3"/>
<path d="M62.3333 38.1237H2.15442V10.6196H62.3333V38.1237Z" stroke="black" stroke-width="3"/>
<path d="M182.691 38.1237H122.512V10.6196H182.691V38.1237Z" stroke="black" stroke-width="3"/>
<path d="M122.512 38.1237H62.3333V10.6196H122.512V38.1237Z" stroke="black" stroke-width="3"/>
</g>
<path d="M255.143 149.371C257.615 149.371 259.511 149.995 260.831 151.243C262.151 152.467 262.811 154.291 262.811 156.715V168.451H260.363V165.499C259.787 166.483 258.935 167.251 257.807 167.803C256.703 168.355 255.383 168.631 253.847 168.631C251.735 168.631 250.055 168.127 248.807 167.119C247.559 166.111 246.935 164.779 246.935 163.123C246.935 161.515 247.511 160.219 248.663 159.235C249.839 158.251 251.699 157.759 254.243 157.759H260.255V156.607C260.255 154.975 259.799 153.739 258.887 152.899C257.975 152.035 256.643 151.603 254.891 151.603C253.691 151.603 252.539 151.807 251.435 152.215C250.331 152.599 249.383 153.139 248.591 153.835L247.439 151.927C248.399 151.111 249.551 150.487 250.895 150.055C252.239 149.599 253.655 149.371 255.143 149.371ZM254.243 166.615C255.683 166.615 256.919 166.291 257.951 165.643C258.983 164.971 259.751 164.011 260.255 162.763V159.667H254.315C251.075 159.667 249.455 160.795 249.455 163.051C249.455 164.155 249.875 165.031 250.715 165.679C251.555 166.303 252.731 166.615 254.243 166.615ZM284.251 168.631C282.715 168.631 281.239 168.415 279.823 167.983C278.431 167.527 277.339 166.963 276.547 166.291L277.699 164.275C278.491 164.899 279.487 165.415 280.687 165.823C281.887 166.207 283.135 166.399 284.431 166.399C286.159 166.399 287.431 166.135 288.247 165.607C289.087 165.055 289.507 164.287 289.507 163.303C289.507 162.607 289.279 162.067 288.823 161.683C288.367 161.275 287.791 160.975 287.095 160.783C286.399 160.567 285.475 160.363 284.323 160.171C282.787 159.883 281.551 159.595 280.615 159.307C279.679 158.995 278.875 158.479 278.203 157.759C277.555 157.039 277.231 156.043 277.231 154.771C277.231 153.187 277.891 151.891 279.211 150.883C280.531 149.875 282.367 149.371 284.719 149.371C285.943 149.371 287.167 149.539 288.391 149.875C289.615 150.187 290.623 150.607 291.415 151.135L290.299 153.187C288.739 152.107 286.879 151.567 284.719 151.567C283.087 151.567 281.851 151.855 281.011 152.431C280.195 153.007 279.787 153.763 279.787 154.699C279.787 155.419 280.015 155.995 280.471 156.427C280.951 156.859 281.539 157.183 282.235 157.399C282.931 157.591 283.891 157.795 285.115 158.011C286.627 158.299 287.839 158.587 288.751 158.875C289.663 159.163 290.443 159.655 291.091 160.351C291.739 161.047 292.063 162.007 292.063 163.231C292.063 164.887 291.367 166.207 289.975 167.191C288.607 168.151 286.699 168.631 284.251 168.631ZM296.788 149.515H299.344V168.451H296.788V149.515ZM298.084 145.375C297.556 145.375 297.112 145.195 296.752 144.835C296.392 144.475 296.212 144.043 296.212 143.539C296.212 143.059 296.392 142.639 296.752 142.279C297.112 141.919 297.556 141.739 298.084 141.739C298.612 141.739 299.056 141.919 299.416 142.279C299.776 142.615 299.956 143.023 299.956 143.503C299.956 144.031 299.776 144.475 299.416 144.835C299.056 145.195 298.612 145.375 298.084 145.375ZM330.072 149.371C332.448 149.371 334.308 150.055 335.652 151.423C337.02 152.791 337.704 154.807 337.704 157.471V168.451H335.148V157.723C335.148 155.755 334.668 154.255 333.708 153.223C332.772 152.191 331.44 151.675 329.712 151.675C327.744 151.675 326.196 152.287 325.068 153.511C323.94 154.711 323.376 156.379 323.376 158.515V168.451H320.82V157.723C320.82 155.755 320.34 154.255 319.38 153.223C318.444 152.191 317.1 151.675 315.348 151.675C313.404 151.675 311.856 152.287 310.704 153.511C309.576 154.711 309.012 156.379 309.012 158.515V168.451H306.456V149.515H308.904V152.971C309.576 151.819 310.512 150.931 311.712 150.307C312.912 149.683 314.292 149.371 315.852 149.371C317.436 149.371 318.804 149.707 319.956 150.379C321.132 151.051 322.008 152.047 322.584 153.367C323.28 152.119 324.276 151.147 325.572 150.451C326.892 149.731 328.392 149.371 330.072 149.371ZM354.392 149.371C356.168 149.371 357.776 149.779 359.216 150.595C360.656 151.387 361.784 152.515 362.6 153.979C363.416 155.443 363.824 157.111 363.824 158.983C363.824 160.879 363.416 162.559 362.6 164.023C361.784 165.487 360.656 166.627 359.216 167.443C357.8 168.235 356.192 168.631 354.392 168.631C352.856 168.631 351.464 168.319 350.216 167.695C348.992 167.047 347.984 166.111 347.192 164.887V175.435H344.636V149.515H347.084V153.259C347.852 152.011 348.86 151.051 350.108 150.379C351.38 149.707 352.808 149.371 354.392 149.371ZM354.212 166.363C355.532 166.363 356.732 166.063 357.812 165.463C358.892 164.839 359.732 163.963 360.332 162.835C360.956 161.707 361.268 160.423 361.268 158.983C361.268 157.543 360.956 156.271 360.332 155.167C359.732 154.039 358.892 153.163 357.812 152.539C356.732 151.915 355.532 151.603 354.212 151.603C352.868 151.603 351.656 151.915 350.576 152.539C349.52 153.163 348.68 154.039 348.056 155.167C347.456 156.271 347.156 157.543 347.156 158.983C347.156 160.423 347.456 161.707 348.056 162.835C348.68 163.963 349.52 164.839 350.576 165.463C351.656 166.063 352.868 166.363 354.212 166.363ZM369.034 141.739H371.59V168.451H369.034V141.739ZM395.19 159.775H379.35C379.494 161.743 380.25 163.339 381.618 164.563C382.986 165.763 384.714 166.363 386.802 166.363C387.978 166.363 389.058 166.159 390.042 165.751C391.026 165.319 391.878 164.695 392.598 163.879L394.038 165.535C393.198 166.543 392.142 167.311 390.87 167.839C389.622 168.367 388.242 168.631 386.73 168.631C384.786 168.631 383.058 168.223 381.546 167.407C380.058 166.567 378.894 165.415 378.054 163.951C377.214 162.487 376.794 160.831 376.794 158.983C376.794 157.135 377.19 155.479 377.982 154.015C378.798 152.551 379.902 151.411 381.294 150.595C382.71 149.779 384.294 149.371 386.046 149.371C387.798 149.371 389.37 149.779 390.762 150.595C392.154 151.411 393.246 152.551 394.038 154.015C394.83 155.455 395.226 157.111 395.226 158.983L395.19 159.775ZM386.046 151.567C384.222 151.567 382.686 152.155 381.438 153.331C380.214 154.483 379.518 155.995 379.35 157.867H392.778C392.61 155.995 391.902 154.483 390.654 153.331C389.43 152.155 387.894 151.567 386.046 151.567ZM402.877 153.223C403.477 151.951 404.365 150.991 405.541 150.343C406.741 149.695 408.217 149.371 409.969 149.371V151.855L409.357 151.819C407.365 151.819 405.805 152.431 404.677 153.655C403.549 154.879 402.985 156.595 402.985 158.803V168.451H400.429V149.515H402.877V153.223ZM452.092 149.515L444.928 168.451H442.516L436.54 152.935L430.564 168.451H428.152L421.024 149.515H423.472L429.412 165.607L435.496 149.515H437.692L443.74 165.607L449.752 149.515H452.092ZM462.002 149.371C464.474 149.371 466.37 149.995 467.69 151.243C469.01 152.467 469.67 154.291 469.67 156.715V168.451H467.222V165.499C466.646 166.483 465.794 167.251 464.666 167.803C463.562 168.355 462.242 168.631 460.706 168.631C458.594 168.631 456.914 168.127 455.666 167.119C454.418 166.111 453.794 164.779 453.794 163.123C453.794 161.515 454.37 160.219 455.522 159.235C456.698 158.251 458.558 157.759 461.102 157.759H467.114V156.607C467.114 154.975 466.658 153.739 465.746 152.899C464.834 152.035 463.502 151.603 461.75 151.603C460.55 151.603 459.398 151.807 458.294 152.215C457.19 152.599 456.242 153.139 455.45 153.835L454.298 151.927C455.258 151.111 456.41 150.487 457.754 150.055C459.098 149.599 460.514 149.371 462.002 149.371ZM461.102 166.615C462.542 166.615 463.778 166.291 464.81 165.643C465.842 164.971 466.61 164.011 467.114 162.763V159.667H461.174C457.934 159.667 456.314 160.795 456.314 163.051C456.314 164.155 456.734 165.031 457.574 165.679C458.414 166.303 459.59 166.615 461.102 166.615ZM492.173 149.515L482.705 170.719C481.937 172.495 481.049 173.755 480.041 174.499C479.033 175.243 477.821 175.615 476.405 175.615C475.493 175.615 474.641 175.471 473.849 175.183C473.057 174.895 472.373 174.463 471.797 173.887L472.985 171.979C473.945 172.939 475.097 173.419 476.441 173.419C477.305 173.419 478.037 173.179 478.637 172.699C479.261 172.219 479.837 171.403 480.365 170.251L481.193 168.415L472.733 149.515H475.397L482.525 165.607L489.653 149.515H492.173ZM515.166 167.299C514.686 167.731 514.086 168.067 513.366 168.307C512.67 168.523 511.938 168.631 511.17 168.631C509.394 168.631 508.026 168.151 507.066 167.191C506.106 166.231 505.626 164.875 505.626 163.123V151.675H502.242V149.515H505.626V145.375H508.182V149.515H513.942V151.675H508.182V162.979C508.182 164.107 508.458 164.971 509.01 165.571C509.586 166.147 510.402 166.435 511.458 166.435C511.986 166.435 512.49 166.351 512.97 166.183C513.474 166.015 513.906 165.775 514.266 165.463L515.166 167.299ZM526.891 168.631C525.067 168.631 523.423 168.223 521.959 167.407C520.495 166.567 519.343 165.415 518.503 163.951C517.663 162.487 517.243 160.831 517.243 158.983C517.243 157.135 517.663 155.479 518.503 154.015C519.343 152.551 520.495 151.411 521.959 150.595C523.423 149.779 525.067 149.371 526.891 149.371C528.715 149.371 530.359 149.779 531.823 150.595C533.287 151.411 534.427 152.551 535.243 154.015C536.083 155.479 536.503 157.135 536.503 158.983C536.503 160.831 536.083 162.487 535.243 163.951C534.427 165.415 533.287 166.567 531.823 167.407C530.359 168.223 528.715 168.631 526.891 168.631ZM526.891 166.363C528.235 166.363 529.435 166.063 530.491 165.463C531.571 164.839 532.411 163.963 533.011 162.835C533.611 161.707 533.911 160.423 533.911 158.983C533.911 157.543 533.611 156.259 533.011 155.131C532.411 154.003 531.571 153.139 530.491 152.539C529.435 151.915 528.235 151.603 526.891 151.603C525.547 151.603 524.335 151.915 523.255 152.539C522.199 153.139 521.359 154.003 520.735 155.131C520.135 156.259 519.835 157.543 519.835 158.983C519.835 160.423 520.135 161.707 520.735 162.835C521.359 163.963 522.199 164.839 523.255 165.463C524.335 166.063 525.547 166.363 526.891 166.363ZM560.9 149.371C562.676 149.371 564.284 149.779 565.724 150.595C567.164 151.387 568.292 152.515 569.108 153.979C569.924 155.443 570.332 157.111 570.332 158.983C570.332 160.855 569.924 162.523 569.108 163.987C568.292 165.451 567.164 166.591 565.724 167.407C564.284 168.223 562.676 168.631 560.9 168.631C559.316 168.631 557.888 168.295 556.616 167.623C555.368 166.951 554.36 165.979 553.592 164.707V168.451H551.144V141.739H553.7V153.115C554.492 151.891 555.5 150.967 556.724 150.343C557.972 149.695 559.364 149.371 560.9 149.371ZM560.72 166.363C562.04 166.363 563.24 166.063 564.32 165.463C565.4 164.839 566.24 163.963 566.84 162.835C567.464 161.707 567.776 160.423 567.776 158.983C567.776 157.543 567.464 156.259 566.84 155.131C566.24 154.003 565.4 153.139 564.32 152.539C563.24 151.915 562.04 151.603 560.72 151.603C559.376 151.603 558.164 151.915 557.084 152.539C556.028 153.139 555.188 154.003 554.564 155.131C553.964 156.259 553.664 157.543 553.664 158.983C553.664 160.423 553.964 161.707 554.564 162.835C555.188 163.963 556.028 164.839 557.084 165.463C558.164 166.063 559.376 166.363 560.72 166.363ZM592.606 149.515V168.451H590.158V164.995C589.486 166.147 588.562 167.047 587.386 167.695C586.21 168.319 584.866 168.631 583.354 168.631C580.882 168.631 578.926 167.947 577.486 166.579C576.07 165.187 575.362 163.159 575.362 160.495V149.515H577.918V160.243C577.918 162.235 578.41 163.747 579.394 164.779C580.378 165.811 581.782 166.327 583.606 166.327C585.598 166.327 587.17 165.727 588.322 164.527C589.474 163.303 590.05 161.611 590.05 159.451V149.515H592.606ZM599.765 149.515H602.321V168.451H599.765V149.515ZM601.061 145.375C600.533 145.375 600.089 145.195 599.729 144.835C599.369 144.475 599.189 144.043 599.189 143.539C599.189 143.059 599.369 142.639 599.729 142.279C600.089 141.919 600.533 141.739 601.061 141.739C601.589 141.739 602.033 141.919 602.393 142.279C602.753 142.615 602.933 143.023 602.933 143.503C602.933 144.031 602.753 144.475 602.393 144.835C602.033 145.195 601.589 145.375 601.061 145.375ZM609.433 141.739H611.989V168.451H609.433V141.739ZM636.381 141.739V168.451H633.933V164.707C633.165 165.979 632.145 166.951 630.873 167.623C629.625 168.295 628.209 168.631 626.625 168.631C624.849 168.631 623.241 168.223 621.801 167.407C620.361 166.591 619.233 165.451 618.417 163.987C617.601 162.523 617.193 160.855 617.193 158.983C617.193 157.111 617.601 155.443 618.417 153.979C619.233 152.515 620.361 151.387 621.801 150.595C623.241 149.779 624.849 149.371 626.625 149.371C628.161 149.371 629.541 149.695 630.765 150.343C632.013 150.967 633.033 151.891 633.825 153.115V141.739H636.381ZM626.841 166.363C628.161 166.363 629.349 166.063 630.405 165.463C631.485 164.839 632.325 163.963 632.925 162.835C633.549 161.707 633.861 160.423 633.861 158.983C633.861 157.543 633.549 156.259 632.925 155.131C632.325 154.003 631.485 153.139 630.405 152.539C629.349 151.915 628.161 151.603 626.841 151.603C625.497 151.603 624.285 151.915 623.205 152.539C622.149 153.139 621.309 154.003 620.685 155.131C620.085 156.259 619.785 157.543 619.785 158.983C619.785 160.423 620.085 161.707 620.685 162.835C621.309 163.963 622.149 164.839 623.205 165.463C624.285 166.063 625.497 166.363 626.841 166.363ZM674.521 143.251V168.451H671.893V156.823H656.125V168.451H653.461V143.251H656.125V154.483H671.893V143.251H674.521ZM687.642 145.555H678.786V143.251H699.162V145.555H690.306V168.451H687.642V145.555ZM729.59 143.251V168.451H727.034V148.291L717.134 165.247H715.874L705.974 148.399V168.451H703.418V143.251H705.614L716.558 161.935L727.394 143.251H729.59ZM737.801 143.251H740.465V166.147H754.577V168.451H737.801V143.251Z" fill="black"/>
</svg>
